<svg width="512" viewBox="0 0 1539 1539" xmlns="http://www.w3.org/2000/svg" xmlns:xlink="http://www.w3.org/1999/xlink"><path d="M0 770q0-157 61-299.5T225 225T470.5 61T769 0q157 0 299.5 61T1314 225t164 245.5t61 299.5q0 156-61 298.5T1314 1314t-245.5 164t-299.5 61q-156 0-298.5-61T225 1314T61 1068.5T0 770zm82 0q0 139 54.5 266.5T283 1256t219.5 146.5T769 1457q140 0 267-54.5t219.5-146.5t147-219.5T1457 770q0-186-92.5-344.5t-251-251T769 82q-139 0-266.5 54.5T283 283.5T136.5 503T82 770z" fill="currentColor"/></svg>