<svg width="22" height="22" xmlns="http://www.w3.org/2000/svg">

 <g>
  <title>Layer 1</title>
  <g stroke="null" id="svg_1" color="#232629" fill="currentColor" class="ColorScheme-Text">
   <path stroke="null" id="svg_2" d="m15.57426,5.88065l-0.74137,1.18311a5.50122,5.49433 0 0 1 1.67078,3.92491a5.50122,5.49433 0 0 1 -1.66541,3.93028l0.74137,1.18579a6.87653,6.86792 0 0 0 2.29934,-5.11606a6.87653,6.86792 0 0 0 -2.30471,-5.10801z"/>
   <path stroke="null" id="svg_3" d="m14.94301,0.73777l-0.33577,1.34139a9.62714,9.61508 0 0 1 6.02234,8.90952a9.62714,9.61508 0 0 1 -6.02502,8.89879l0.33577,1.33871a11.00244,10.98867 0 0 0 7.06456,-10.2375a11.00244,10.98867 0 0 0 -7.06188,-10.2509z"/>
   <path stroke="null" id="svg_4" fill-rule="evenodd" d="m0,6.86792l2.75061,0l0,8.2415l-2.75061,0l0,-8.2415z"/>
   <path stroke="null" id="svg_5" d="m4.12592,15.10942l6.87653,6.86792l1.37531,0l0,-21.97734l-1.37531,0l-6.87653,6.86792l0,8.2415z"/>
  </g>
 </g>
</svg>