<svg width="22" height="22" xmlns="http://www.w3.org/2000/svg">
 <g>
  <title>Layer 1</title>
  <g stroke="null" class="ColorScheme-Text" fill="currentColor" color="#232629" id="svg_1">
   <path stroke="null" d="m0,6.872l0,8.24641l2.7488,0l0,-8.24641l-2.7488,0z" id="svg_2"/>
   <path stroke="null" d="m4.1232,6.872l0,8.24641l6.872,6.872l1.3744,0l0,-6.872l-8.2464,-8.24641z" id="svg_3"/>
   <path stroke="null" d="m10.99521,0l-4.1232,4.1232l5.4976,5.4976l0,-9.62081l-1.3744,0z" id="svg_4"/>
   <g stroke="null" opacity="0.35" id="svg_5">
    <path stroke="null" d="m16.26195,19.01075a9.62081,9.62081 0 0 1 -1.667,0.88854l0.33555,1.3395a10.99521,10.99521 0 0 0 2.31125,-1.24824l-0.9798,-0.9798z" id="svg_6"/>
    <path stroke="null" d="m15.56402,5.88415l-0.74088,1.18381a5.4976,5.4976 0 0 1 1.66968,3.92724a5.4976,5.4976 0 0 1 -0.51003,2.23878l1.0308,1.0308a6.872,6.872 0 0 0 0.85363,-3.26958a6.872,6.872 0 0 0 -2.30319,-5.11105z" id="svg_7"/>
    <path stroke="null" d="m14.93318,0.7382l-0.33555,1.34218a9.62081,9.62081 0 0 1 6.01838,8.91482a9.62081,9.62081 0 0 1 -1.60258,5.26943l0.98517,0.98517a10.99521,10.99521 0 0 0 1.99181,-6.2546a10.99521,10.99521 0 0 0 -7.05723,-10.257z" id="svg_8"/>
   </g>
  </g>
  <path stroke="null" d="m0,0.9715l0.97177,-0.9715l21.01671,21.01099l-0.97177,0.9715l-21.01671,-21.01099z" class="ColorScheme-NegativeText" fill="currentColor" color="#da4453" id="svg_9"/>
 </g>

</svg>