<svg width="22" height="22" xmlns="http://www.w3.org/2000/svg">

 <g>
  <title>Layer 1</title>
  <g stroke="null" id="svg_1" color="#232629" fill="currentColor" class="ColorScheme-Text">
   <path stroke="null" id="svg_2" d="m15.56049,5.88496l-0.74072,1.18398a5.49636,5.49836 0 0 1 1.6693,3.92778a5.49636,5.49836 0 0 1 -1.66394,3.93316l0.74072,1.18666a6.87045,6.87295 0 0 0 2.29731,-5.11981a6.87045,6.87295 0 0 0 -2.30267,-5.11176z"/>
   <path stroke="null" id="svg_3" fill-opacity="0.35" d="m14.9298,0.73831l-0.33547,1.34237a9.61863,9.62213 0 0 1 6.01701,8.91604a9.61863,9.62213 0 0 1 -6.01969,8.90531l0.33547,1.33969a10.99271,10.99672 0 0 0 7.05831,-10.245a10.99271,10.99672 0 0 0 -7.05563,-10.25841z"/>
   <path stroke="null" id="svg_4" fill-rule="evenodd" d="m0,6.87295l2.74818,0l0,8.24754l-2.74818,0l0,-8.24754z"/>
   <path stroke="null" id="svg_5" d="m4.12227,15.12049l6.87045,6.87295l1.37409,0l0,-21.99344l-1.37409,0l-6.87045,6.87295l0,8.24754z"/>
  </g>
 </g>
</svg>