<svg width="22" height="22" xmlns="http://www.w3.org/2000/svg">

 <g>
  <title>Layer 1</title>
  <g stroke="null" id="svg_8">
   <g stroke="null" id="svg_1" color="#f67400" fill="currentColor" class="ColorScheme-NeutralText">
    <path stroke="null" id="svg_2" d="m15.56059,5.88425l-0.74072,1.18383a5.49639,5.4977 0 0 1 1.66931,3.92731a5.49639,5.4977 0 0 1 -1.66395,3.93268l0.74072,1.18651a6.87049,6.87212 0 0 0 2.29733,-5.11919a6.87049,6.87212 0 0 0 -2.30269,-5.11114z"/>
    <path stroke="null" id="svg_3" d="m14.92989,0.73822l-0.33547,1.34221a9.61869,9.62097 0 0 1 6.01705,8.91497a9.61869,9.62097 0 0 1 -6.01973,8.90423l0.33547,1.33953a10.99279,10.99539 0 0 0 7.05836,-10.24376a10.99279,10.99539 0 0 0 -7.05568,-10.25717z"/>
   </g>
   <g stroke="null" id="svg_4" color="#232629" fill="currentColor" class="ColorScheme-Text">
    <path stroke="null" id="svg_5" fill-rule="evenodd" d="m0,6.87212l2.7482,0l0,8.24654l-2.7482,0l0,-8.24654z"/>
    <path stroke="null" id="svg_6" d="m4.1223,15.11866l6.87049,6.87212l1.3741,0l0,-21.99078l-1.3741,0l-6.87049,6.87212l0,8.24654z"/>
   </g>
  </g>
 </g>
</svg>