<svg width="21.999999999999996" height="21.999999999999996" xmlns="http://www.w3.org/2000/svg">

 <g>
  <title>Layer 1</title>
  <g stroke="null" id="svg_7">
   <g stroke="null" id="svg_1" color="#da4453" fill="currentColor" class="ColorScheme-NegativeText">
    <path stroke="null" id="svg_2" d="m15.56992,5.88515l-0.74117,1.18401a5.49969,5.49853 0 0 1 1.67031,3.9279a5.49969,5.49853 0 0 1 -1.66495,3.93328l0.74117,1.18669a6.87461,6.87316 0 0 0 2.2987,-5.11997a6.87461,6.87316 0 0 0 -2.30407,-5.11192z"/>
    <path stroke="null" id="svg_3" d="m14.93884,0.73833l-0.33567,1.34241a9.62445,9.62243 0 0 1 6.02066,8.91632a9.62445,9.62243 0 0 1 -6.02334,8.90559l0.33567,1.33973a10.99937,10.99706 0 0 0 7.06259,-10.24532a10.99937,10.99706 0 0 0 -7.05991,-10.25873z"/>
   </g>
   <g stroke="null" id="svg_4" color="#232629" fill="currentColor" class="ColorScheme-Text">
    <path stroke="null" id="svg_5" fill-rule="evenodd" d="m0,6.87316l2.74984,0l0,8.2478l-2.74984,0l0,-8.2478z"/>
    <path stroke="null" id="svg_6" d="m4.12477,15.12096l6.87461,6.87316l1.37492,0l0,-21.99412l-1.37492,0l-6.87461,6.87316l0,8.2478z"/>
   </g>
  </g>
 </g>
</svg>