<svg width="22" height="22" xmlns="http://www.w3.org/2000/svg">

 <g>
  <title>Layer 1</title>
  <g stroke="null" id="svg_1" color="#232629" fill="currentColor" class="ColorScheme-Text">
   <path stroke="null" id="svg_2" fill-opacity="0.35" d="m14.92462,0.73891l-0.33535,1.34346a9.61529,9.62998 0 0 1 6.01493,8.92332a9.61529,9.62998 0 0 1 -6.0176,8.91257l0.33535,1.34078a10.9889,11.00569 0 0 0 7.05586,-10.25336a10.9889,11.00569 0 0 0 -7.05318,-10.26678zm0.63047,5.15086l-0.74046,1.18494a5.49445,5.50285 0 0 1 1.66872,3.93099a5.49445,5.50285 0 0 1 -1.66336,3.93636l0.74047,1.18762a6.86806,6.87856 0 0 0 2.2965,-5.12399a6.86806,6.87856 0 0 0 -2.30187,-5.11593z"/>
   <path stroke="null" id="svg_3" fill-rule="evenodd" d="m0,6.87856l2.74723,0l0,8.25427l-2.74723,0l0,-8.25427z"/>
   <path stroke="null" id="svg_4" d="m4.12084,15.13283l6.86806,6.87856l1.37361,0l0,-22.01138l-1.37361,0l-6.86806,6.87856l0,8.25427z"/>
  </g>
 </g>
</svg>